<svg xmlns="http://www.w3.org/2000/svg" id="svg1" width="156.282" height="164.086" viewBox="0 0 41.35 43.415">
  <metadata>
    <rdf:RDF xmlns:dc="http://purl.org/dc/elements/1.1/" xmlns:rdf="http://www.w3.org/1999/02/22-rdf-syntax-ns#">
      <rdf:Description dc:creator="Sina Friedrich" dc:format="image/svg+xml" dc:rights="Copyright 2026 Sina Friedrich. All rights reserved." dc:title="GhostLayer Logo"/>
    </rdf:RDF>
  </metadata>
  <g id="layer1" transform="translate(-62.442 -155.575)">
    <g id="g46" style="display:inline" transform="translate(-17.878 137.49)scale(.26458)">
      <g id="layer1-2" style="display:inline">
        <path id="path32" d="M454.79 192.51c-1.81-2.15-3.9-3.79-5.93-5.86-16.93-17.29-20.31-38.98-20.82-62.3-.23-11.11-1.2-21.86-6.37-31.83-3.43-6.62-8.22-12.07-14.49-16.12-17.06-11.02-39.08-10.73-55.74.91-12.75 8.91-19.38 22.57-24.56 36.83-3.74 10.31-8.83 19.52-15.95 27.83-2.98 3.49-5 7.49-6.31 11.83-2.23 7.33-.86 15.01 3.7 21.07.83 1.13.99 2.19.48 3.48-3.52 8.73-.52 18.3 7.27 23.6 4.8 3.27 10.37 4.68 16.25 4.68 2.64 0 4.9 1 6.54 2.98 2.49 3 4.84 5.89 7.85 8.41 7.24 6.08 16.11 9.64 25.67 9.44 7.52-.16 14.24-3.04 20.5-6.91 3.48-2.15 9.96 4.03 22.1 4.45 9.72.34 20.17-3.27 24.62-12.41 1.41-2.9 6.54.42 13.51-4.73 5.11-3.77 5.76-10.52 1.69-15.35z" class="cls-7" style="display:inline;fill:#c5dcea"/>
        <path id="path33" d="M457.19 197.48c-1.81-2.15-3.9-3.79-5.93-5.86-1.24-1.27-2.4-2.56-3.5-3.87-2.56-1.83-4.77-4.12-6.71-7.04-4.59-6.92-8.06-14.76-10.59-22.65-2.8-8.76-4.34-18.03-5.1-27.18-.5-6.06-1.16-12.27-1.06-18.41-.67-.85-1.09-1.94-1.22-3.05-.26-2.18-.82-5.03-1.11-7.5-.11-.95.17-1.81.69-2.53-.46-.67-.93-1.34-1.44-2.05-1.25-1.74-1.03-3.45-.08-4.72a40.9 40.9 0 0 0-11.56-11.25c-17.06-11.02-39.08-10.73-55.74.91-12.75 8.91-19.38 22.57-24.56 36.83-3.74 10.31-8.83 19.52-15.95 27.83-2.98 3.49-5 7.49-6.31 11.83-.93 3.06-1.23 6.19-.93 9.23.5.22.97.52 1.36.92 1.84 1.88 3.29 4.17 3.71 6.79.23 1.42 0 2.75-.67 3.8.08.11.15.22.23.33.83 1.13.99 2.19.48 3.48-3.52 8.73-.52 18.3 7.27 23.6 4.8 3.27 10.37 4.68 16.25 4.68 2.64 0 4.9 1 6.54 2.98 2.49 3 4.84 5.89 7.85 8.41 7.24 6.08 16.11 9.64 25.67 9.44 7.52-.16 14.24-3.04 20.5-6.91 3.48-2.15 9.96 4.03 22.1 4.45 9.72.34 20.17-3.27 24.62-12.41 1.41-2.9 6.54.42 13.51-4.73 5.11-3.77 5.76-10.52 1.69-15.35z" class="cls-3" style="display:inline;opacity:.5;fill:#fff"/>
        <ellipse id="ellipse33" cx="358.26" cy="104.26" class="cls-2" rx="3.79" ry="3.8" style="display:inline;fill:#fff"/>
        <ellipse id="ellipse34" cx="394.66" cy="110.89" class="cls-2" rx="3.79" ry="3.8" style="display:inline;fill:#fff"/>
        <path id="path34" d="M402.95 113.54c-.09 6.84-3.66 14.68-10.65 13.76-7.11-.94-10.61-14.76-3.45-23.15 2.93-3.43 7.65-3.41 10.59-.25 2.48 2.66 3.56 5.95 3.51 9.65zm-6.26-4.68c-.21-.8-.78-1.35-1.27-1.51-.75-.24-1.54-.2-2.07.45-1.89 2.31-.96 6.08.74 6.18 2.2.12 3.12-3.09 2.6-5.12" class="cls-5" style="display:inline;fill:#050606"/>
        <path id="path35" d="M454.8 192.66c-1.81-2.15-3.9-3.79-5.93-5.86-16.93-17.29-20.31-38.98-20.82-62.3-.23-11.11-1.2-21.86-6.37-31.83-3.43-6.62-8.22-12.07-14.49-16.12-17.06-11.02-39.08-10.73-55.74.91-12.75 8.91-19.38 22.57-24.56 36.83-3.74 10.31-8.83 19.52-15.95 27.83-2.98 3.49-5 7.49-6.31 11.83-2.23 7.33-.86 15.01 3.7 21.07.83 1.13.99 2.19.48 3.48-3.52 8.73-.52 18.3 7.27 23.6 4.8 3.27 10.37 4.68 16.25 4.68 2.64 0 4.9 1 6.54 2.98 2.49 3 4.84 5.89 7.85 8.41 7.24 6.08 16.11 9.64 25.67 9.44 7.52-.16 14.24-3.04 20.5-6.91 3.48-2.15 9.96 4.03 22.1 4.45 9.72.34 20.17-3.27 24.62-12.41 1.41-2.9 6.54.42 13.51-4.73 5.11-3.77 5.76-10.52 1.69-15.35zm-4.34 11.67c-7.01 4.83-16.73 2.08-23.45-2.25-.53-.35-1.18-.47-1.64-.13-.39.29-.5 1.28-.08 1.89 3.26 4.68 9.21 5.75 9.62 6.41 1.51 2.41-7.11 11.64-21.8 10.18-13.44-1.34-18.84-8.64-25.18-8.61-.65 0-1.29.2-1.46.6-.21.52-.02 1.17.44 1.54l3.32 2.6c-2.81 2.56-6.23 3.81-9.77 4.88-15.64 4.74-30.32-3.06-38.99-15.86-1.82-2.69-4.24-4.09-7.58-3.63-6.09.83-12.39-1.04-17-5.09-5.09-4.47-6.25-11.23-3.53-17.42.8-1.82 1.29-3.62-.22-5.31-4.83-5.36-6.47-12.8-4.15-19.74 1.32-3.97 3.39-7.36 6.11-10.58 6.03-7.16 10.65-14.92 14.1-23.68 4.81-12.17 8.63-23.87 18.09-33.48 4.97-5.05 10.7-8.88 17.44-11.16 20.31-6.86 44.56.39 53.93 20.99 2.65 5.83 4.16 11.8 4.44 18.18l.68 16.01c1.01 23.83 6.7 45.79 24.95 62.15 1.46 1.31 2.71 2.54 3.59 4.28 1.37 2.64.61 5.52-1.89 7.24z" class="cls-5" style="display:inline;fill:#050606"/>
        <path id="path36" d="M352.35 119.2c-6.35-2.6-5.57-14.68 1.36-20.93 2.47-2.23 5.84-3.45 8.99-2.1 6.42 2.74 5.07 15.15-2.01 21.15-2.32 1.97-5.37 3.09-8.35 1.87zm8.27-15.44c.28-.85-.02-1.71-.56-2.2-.43-.39-1.22-.64-1.95-.33-1.72.73-2.82 2.62-2.44 4.47.13.63.48 1.1.8 1.24 1.8.78 3.71-1.85 4.14-3.19z" class="cls-5" style="display:inline;fill:#050606"/>
        <path id="path37" d="M386.73 179.32c-3.78-4.06-5.42-8.88-4.45-14.38.81-4.61 3.36-8.09 7.97-8.03 1.08-1.04 2.36-1.86 3.84-2.4l2.65-10.91-10.44-11.67-47.38-4.56-2.96 19.22c4.94 4.07 9.43 9.82 6.49 16.4-.04.08-.08.16-.12.25.1.89-.14 1.86-.85 2.84-2.01 2.78-5.7 6.49-9.54 6.7l-3.57 23.21 57.66 6.25 3.56-21.48c-.98-.07-1.97-.49-2.84-1.43z" class="cls-2" style="display:inline;fill:#fff"/>
        <path id="path38" d="M388.26 183.63c6.43 3.86 13.85 4.52 20.44 1.39 2.11-1 6.51-4.23 4.58-6.19-.47-.47-1.38-.46-2.02.02-7.32 5.45-17.54 4.91-24.03-1.56-2.81-2.8-4.18-6.38-3.61-10.24.52-3.46 2.36-6.93 5.79-8.76 5.36-2.88 11.62-2.34 16.78.64.78.46 1.93-.1 2.22-.59.35-.59.28-1.66-.37-2.27-3.93-3.66-9.12-4.65-14.43-3.89-6.02 1.4-9.83 3.71-12.19 8.61-1.46 3.04-1.94 6.46-1.6 9.81.59 5.86 3.37 10.31 8.43 13.04zm-48.08-37.94c-5.81-4.62-13.79-4.76-19.49-.5-.65.48-.89 1.29-.76 1.75.83 2.86 5.62-1.81 12.29-.33 3.85.85 7.26 3.2 8.69 6.91 2.3 5.91-.37 12.44-5.83 15.48-2.39 1.32-4.9 2.41-7.69 2.63-4.6.36-9.19-1.59-12.22-4.9-.53-.58-1.26-.81-1.85-.5-2.79 1.43 4.95 11.81 16.36 9.53 2-.4 3.74-1 5.62-1.86 1.83-1 3.63-2.1 5.28-3.71 5.81-5.68 6.51-14.84 2.02-21.62a17 17 0 0 0-2.42-2.89z" class="cls-5" style="display:inline;fill:#050606"/>
      </g>
      <g id="g45" style="display:inline">
        <path id="path39" d="m387.69 180.78-2.65 19.69-54.73-5.85 3.47-23.05c-.9.87-2.17 1.15-3.44.96l-.86 5.91s-2.23 15.39-2.49 17.23c-.26 1.83 1.62 1.92 1.62 1.92s55.76 6.08 57.53 6.29 1.84-1.68 1.84-1.68l2.87-20.65c-1.09.09-2.22-.15-3.16-.76z" class="cls-1" style="fill:#1d1d1b"/>
        <path id="path40" d="m337.47 147.05 2.74-18.24 44.41 4.45-2.45 9.25s-1.15 3.83 2.69 4.2c3.83.37 5.33.62 5.33.62l3.51.27-1.35 6.89c.21-.13.41-.27.63-.38.82-.43 1.63-.59 2.38-.57.77-4.03 1.47-7.19 1.89-7.8 1.34-1.95-.29-3.95-.29-3.95s-7.66-9.11-8.68-10.32c-1.01-1.21-1.89-1.08-1.89-1.08l-23.03-2.37s-21.58-2.28-23.83-2.51c-2.26-.24-2.27 1.36-2.27 1.36l-1.96 12.83-.81 5.36c.06.03.12.05.17.08 1.06.55 2.01 1.18 2.8 1.9zm47.49-4.1c.26-1.1 2.27-8.51 2.27-8.51l6.99 8.63s.57.69.41 1.2-.47.68-.94.64-7.96-.8-7.96-.8-1.03-.07-.77-1.17z" class="cls-1" style="fill:#1d1d1b"/>
        <rect id="rect40" width="27.82" height="3.51" x="349.12" y="142.56" class="cls-6" rx="1.75" ry="1.75" style="fill:#9d9d9c" transform="rotate(6.39 362.874 144.261)"/>
        <rect id="rect41" width="28.86" height="3.51" x="348.26" y="150.28" class="cls-6" rx="1.75" ry="1.75" style="fill:#9d9d9c" transform="rotate(6.39 362.493 151.92)"/>
        <rect id="rect42" width="29.1" height="3.51" x="347.46" y="157.57" class="cls-6" rx="1.75" ry="1.75" style="fill:#9d9d9c" transform="rotate(6.39 361.823 159.235)"/>
        <rect id="rect43" width="28.59" height="3.51" x="346.61" y="165.1" class="cls-6" rx="1.75" ry="1.75" style="fill:#9d9d9c" transform="rotate(6.39 360.715 166.754)"/>
        <rect id="rect44" width="15.03" height="3.51" x="345.23" y="172.34" class="cls-6" rx="1.75" ry="1.75" style="fill:#9d9d9c" transform="rotate(6.39 352.586 174.037)"/>
        <rect id="rect45" width="15.03" height="14.34" x="364.37" y="174.58" class="cls-6" rx="2.6" ry="2.6" style="fill:#9d9d9c" transform="rotate(6.39 371.702 181.685)"/>
      </g>
    </g>
  </g>
</svg>
